Complete name                    : My Girlfriends Boyfriend [2010] BRRip x264 - ZooGLE
Format                           : MPEG-4
Format profile                   : Base Media
Codec ID                         : isom
File size                        : 401 MiB
Duration                         : 1h 24mn
Overall bit rate                 : 664 Kbps

Video
ID                               : 1
Format                           : AVC
Format/Info                      : Advanced Video Codec
Format profile                   : High@L4.1
Format settings, CABAC           : Yes
Format settings, ReFrames        : 4 frames
Format settings, GOP             : M=1, N=24
Codec ID                         : avc1
Codec ID/Info                    : Advanced Video Coding
Duration                         : 1h 24mn
Bit rate mode                    : Variable
Bit rate                         : 564 Kbps
Maximum bit rate                 : 1 777 Kbps
Width                            : 720 pixels
Height                           : 408 pixels
Display aspect ratio             : 16:9
Frame rate mode                  : Constant
Frame rate                       : 23.976 fps
Color space                      : YUV
Chroma subsampling               : 4:2:0
Bit depth                        : 8 bits
Scan type                        : Progressive
Bits/(Pixel*Frame)               : 0.080
Stream size                      : 340 MiB (85%)

Audio
ID                               : 2
Format                           : AAC
Format/Info                      : Advanced Audio Codec
Format profile                   : LC
Codec ID                         : 40
Duration                         : 1h 24mn
Bit rate mode                    : Variable
Bit rate                         : 96.0 Kbps
Maximum bit rate                 : 110 Kbps
Channel(s)                       : 2 channels
Channel positions                : Front: L R
Sampling rate                    : 48.0 KHz
Compression mode                 : Lossy
Stream size                      : 57.9 MiB (14%)

IMDB              5.4/10 (906 votes)

Comedy | Romance

Jesse meets Ethan, someone she could finally fall in love with, but then she meets Troy, and now she has a dilemma.

Director: Daryn Tufts

Writer: Daryn Tufts
 
Stars: Alyssa Milano, Beau Bridges and Christopher Gorham

Subtitles None

SCREENSHOTS
 
http://img189.imageshack.us/img189/1863/boyfriend1.png
 
http://img195.imageshack.us/img195/3276/boyfriend2.png
 
http://img585.imageshack.us/img585/5036/boyfriend3.png
 
http://img684.imageshack.us/img684/9812/boyfriend4.png


THERE IS A SAMPLE SO PLEASE CHECK THAT FIRST